<mxfile host="Electron" agent="Mozilla/5.0 (Windows NT 10.0; Win64; x64) AppleWebKit/537.36 (KHTML, like Gecko) draw.io/24.7.17 Chrome/128.0.6613.36 Electron/32.0.1 Safari/537.36" version="24.7.17">
  <diagram name="Pagina-1" id="yrhIxk3FCzo-rVSPS3Qs">
    <mxGraphModel dx="979" dy="567" grid="1" gridSize="10" guides="1" tooltips="1" connect="1" arrows="1" fold="1" page="1" pageScale="1" pageWidth="827" pageHeight="1169" math="1" shadow="0">
      <root>
        <mxCell id="0" />
        <mxCell id="1" parent="0" />
        <mxCell id="h2ZsCBytCFm6cg6prh6w-18" value="" style="rounded=1;whiteSpace=wrap;html=1;fillColor=none;dashed=1;strokeColor=#3224FF;" vertex="1" parent="1">
          <mxGeometry x="190" y="310" width="206" height="110" as="geometry" />
        </mxCell>
        <mxCell id="h2ZsCBytCFm6cg6prh6w-21" style="edgeStyle=orthogonalEdgeStyle;rounded=0;orthogonalLoop=1;jettySize=auto;html=1;" edge="1" parent="1" source="h2ZsCBytCFm6cg6prh6w-22">
          <mxGeometry relative="1" as="geometry">
            <mxPoint x="160" y="340" as="targetPoint" />
          </mxGeometry>
        </mxCell>
        <mxCell id="h2ZsCBytCFm6cg6prh6w-49" style="edgeStyle=orthogonalEdgeStyle;rounded=0;orthogonalLoop=1;jettySize=auto;html=1;entryX=0.5;entryY=0;entryDx=0;entryDy=0;" edge="1" parent="1" source="h2ZsCBytCFm6cg6prh6w-22" target="h2ZsCBytCFm6cg6prh6w-34">
          <mxGeometry relative="1" as="geometry">
            <Array as="points">
              <mxPoint x="80" y="280" />
              <mxPoint x="455" y="280" />
            </Array>
          </mxGeometry>
        </mxCell>
        <mxCell id="h2ZsCBytCFm6cg6prh6w-22" value="Generatore di riferimenti" style="rounded=0;whiteSpace=wrap;html=1;fillColor=none;fontFamily=Times New Roman;fontSize=13;" vertex="1" parent="1">
          <mxGeometry x="40" y="320" width="80" height="40" as="geometry" />
        </mxCell>
        <mxCell id="h2ZsCBytCFm6cg6prh6w-23" style="edgeStyle=orthogonalEdgeStyle;rounded=0;orthogonalLoop=1;jettySize=auto;html=1;entryX=0;entryY=0.5;entryDx=0;entryDy=0;" edge="1" parent="1" source="h2ZsCBytCFm6cg6prh6w-24" target="h2ZsCBytCFm6cg6prh6w-26">
          <mxGeometry relative="1" as="geometry">
            <mxPoint x="209.99999999999994" y="340" as="targetPoint" />
          </mxGeometry>
        </mxCell>
        <mxCell id="h2ZsCBytCFm6cg6prh6w-24" value="" style="ellipse;whiteSpace=wrap;html=1;aspect=fixed;fillColor=none;" vertex="1" parent="1">
          <mxGeometry x="160" y="335" width="10" height="10" as="geometry" />
        </mxCell>
        <mxCell id="h2ZsCBytCFm6cg6prh6w-25" style="edgeStyle=orthogonalEdgeStyle;rounded=0;orthogonalLoop=1;jettySize=auto;html=1;entryX=0;entryY=0.5;entryDx=0;entryDy=0;" edge="1" parent="1" source="h2ZsCBytCFm6cg6prh6w-26" target="h2ZsCBytCFm6cg6prh6w-28">
          <mxGeometry relative="1" as="geometry" />
        </mxCell>
        <mxCell id="h2ZsCBytCFm6cg6prh6w-26" value="\(\dfrac{1}{s}\)" style="rounded=0;whiteSpace=wrap;html=1;fillColor=none;fontFamily=Times New Roman;fontSize=13;" vertex="1" parent="1">
          <mxGeometry x="226" y="320" width="40" height="40" as="geometry" />
        </mxCell>
        <mxCell id="h2ZsCBytCFm6cg6prh6w-27" style="edgeStyle=orthogonalEdgeStyle;rounded=0;orthogonalLoop=1;jettySize=auto;html=1;entryX=0;entryY=0.5;entryDx=0;entryDy=0;" edge="1" parent="1" source="h2ZsCBytCFm6cg6prh6w-28" target="h2ZsCBytCFm6cg6prh6w-30">
          <mxGeometry relative="1" as="geometry" />
        </mxCell>
        <mxCell id="h2ZsCBytCFm6cg6prh6w-28" value="\(K_i\)" style="rounded=0;whiteSpace=wrap;html=1;fillColor=none;fontFamily=Times New Roman;fontSize=13;" vertex="1" parent="1">
          <mxGeometry x="296" y="320" width="40" height="40" as="geometry" />
        </mxCell>
        <mxCell id="h2ZsCBytCFm6cg6prh6w-29" style="edgeStyle=orthogonalEdgeStyle;rounded=0;orthogonalLoop=1;jettySize=auto;html=1;entryX=0;entryY=0.5;entryDx=0;entryDy=0;" edge="1" parent="1" source="h2ZsCBytCFm6cg6prh6w-30" target="h2ZsCBytCFm6cg6prh6w-34">
          <mxGeometry relative="1" as="geometry">
            <mxPoint x="416" y="340" as="targetPoint" />
          </mxGeometry>
        </mxCell>
        <mxCell id="h2ZsCBytCFm6cg6prh6w-30" value="" style="ellipse;whiteSpace=wrap;html=1;aspect=fixed;fillColor=none;" vertex="1" parent="1">
          <mxGeometry x="376" y="335" width="10" height="10" as="geometry" />
        </mxCell>
        <mxCell id="h2ZsCBytCFm6cg6prh6w-31" style="edgeStyle=orthogonalEdgeStyle;rounded=0;orthogonalLoop=1;jettySize=auto;html=1;entryX=0.5;entryY=1;entryDx=0;entryDy=0;" edge="1" parent="1" source="h2ZsCBytCFm6cg6prh6w-32" target="h2ZsCBytCFm6cg6prh6w-30">
          <mxGeometry relative="1" as="geometry" />
        </mxCell>
        <mxCell id="h2ZsCBytCFm6cg6prh6w-32" value="\(K_p\)" style="rounded=0;whiteSpace=wrap;html=1;fillColor=none;fontFamily=Times New Roman;fontSize=13;" vertex="1" parent="1">
          <mxGeometry x="296" y="370" width="40" height="40" as="geometry" />
        </mxCell>
        <mxCell id="h2ZsCBytCFm6cg6prh6w-33" value="" style="endArrow=classic;html=1;rounded=0;entryX=0;entryY=0.5;entryDx=0;entryDy=0;" edge="1" parent="1" target="h2ZsCBytCFm6cg6prh6w-32">
          <mxGeometry width="50" height="50" relative="1" as="geometry">
            <mxPoint x="196" y="340" as="sourcePoint" />
            <mxPoint x="316" y="350" as="targetPoint" />
            <Array as="points">
              <mxPoint x="196" y="390" />
            </Array>
          </mxGeometry>
        </mxCell>
        <mxCell id="h2ZsCBytCFm6cg6prh6w-53" style="edgeStyle=orthogonalEdgeStyle;rounded=0;orthogonalLoop=1;jettySize=auto;html=1;entryX=0;entryY=0.5;entryDx=0;entryDy=0;" edge="1" parent="1" source="h2ZsCBytCFm6cg6prh6w-34" target="h2ZsCBytCFm6cg6prh6w-52">
          <mxGeometry relative="1" as="geometry" />
        </mxCell>
        <mxCell id="h2ZsCBytCFm6cg6prh6w-34" value="" style="ellipse;whiteSpace=wrap;html=1;aspect=fixed;fillColor=none;" vertex="1" parent="1">
          <mxGeometry x="450" y="335" width="10" height="10" as="geometry" />
        </mxCell>
        <mxCell id="h2ZsCBytCFm6cg6prh6w-35" value="\(C(s)\)" style="text;html=1;align=center;verticalAlign=middle;whiteSpace=wrap;rounded=0;fontColor=#0011FF;" vertex="1" parent="1">
          <mxGeometry x="266" y="280" width="60" height="30" as="geometry" />
        </mxCell>
        <mxCell id="h2ZsCBytCFm6cg6prh6w-36" value="\(w_d\)" style="text;html=1;align=center;verticalAlign=middle;whiteSpace=wrap;rounded=0;" vertex="1" parent="1">
          <mxGeometry x="120" y="320" width="30" height="20" as="geometry" />
        </mxCell>
        <mxCell id="h2ZsCBytCFm6cg6prh6w-38" value="\(e\)" style="text;html=1;align=center;verticalAlign=middle;whiteSpace=wrap;rounded=0;" vertex="1" parent="1">
          <mxGeometry x="190" y="320" width="30" height="20" as="geometry" />
        </mxCell>
        <mxCell id="h2ZsCBytCFm6cg6prh6w-39" value="\(+\)" style="text;html=1;align=center;verticalAlign=middle;whiteSpace=wrap;rounded=0;" vertex="1" parent="1">
          <mxGeometry x="140" y="315" width="30" height="20" as="geometry" />
        </mxCell>
        <mxCell id="h2ZsCBytCFm6cg6prh6w-40" value="\(-\)" style="text;html=1;align=center;verticalAlign=middle;whiteSpace=wrap;rounded=0;" vertex="1" parent="1">
          <mxGeometry x="170" y="345" width="20" height="20" as="geometry" />
        </mxCell>
        <mxCell id="h2ZsCBytCFm6cg6prh6w-41" value="\(+\)" style="text;html=1;align=center;verticalAlign=middle;whiteSpace=wrap;rounded=0;" vertex="1" parent="1">
          <mxGeometry x="360" y="315" width="30" height="20" as="geometry" />
        </mxCell>
        <mxCell id="h2ZsCBytCFm6cg6prh6w-42" value="\(+\)" style="text;html=1;align=center;verticalAlign=middle;whiteSpace=wrap;rounded=0;" vertex="1" parent="1">
          <mxGeometry x="346" y="350" width="30" height="20" as="geometry" />
        </mxCell>
        <mxCell id="h2ZsCBytCFm6cg6prh6w-43" value="\(+\)" style="text;html=1;align=center;verticalAlign=middle;whiteSpace=wrap;rounded=0;" vertex="1" parent="1">
          <mxGeometry x="430" y="345" width="30" height="20" as="geometry" />
        </mxCell>
        <mxCell id="h2ZsCBytCFm6cg6prh6w-44" value="\(+\)" style="text;html=1;align=center;verticalAlign=middle;whiteSpace=wrap;rounded=0;" vertex="1" parent="1">
          <mxGeometry x="430" y="315" width="20" height="20" as="geometry" />
        </mxCell>
        <mxCell id="h2ZsCBytCFm6cg6prh6w-45" value="\(\tau_{fb}\)" style="text;html=1;align=center;verticalAlign=middle;whiteSpace=wrap;rounded=0;" vertex="1" parent="1">
          <mxGeometry x="400" y="315" width="30" height="20" as="geometry" />
        </mxCell>
        <mxCell id="h2ZsCBytCFm6cg6prh6w-50" value="\(\tau_{ffw}\)" style="text;html=1;align=center;verticalAlign=middle;whiteSpace=wrap;rounded=0;" vertex="1" parent="1">
          <mxGeometry x="460" y="300" width="30" height="20" as="geometry" />
        </mxCell>
        <mxCell id="h2ZsCBytCFm6cg6prh6w-59" style="edgeStyle=orthogonalEdgeStyle;rounded=0;orthogonalLoop=1;jettySize=auto;html=1;entryX=0;entryY=0.5;entryDx=0;entryDy=0;" edge="1" parent="1" source="h2ZsCBytCFm6cg6prh6w-51" target="h2ZsCBytCFm6cg6prh6w-58">
          <mxGeometry relative="1" as="geometry" />
        </mxCell>
        <mxCell id="h2ZsCBytCFm6cg6prh6w-51" value="\(\dfrac{1}{j}\)" style="rounded=0;whiteSpace=wrap;html=1;fillColor=none;fontFamily=Times New Roman;fontSize=13;" vertex="1" parent="1">
          <mxGeometry x="580" y="320" width="40" height="40" as="geometry" />
        </mxCell>
        <mxCell id="h2ZsCBytCFm6cg6prh6w-57" style="edgeStyle=orthogonalEdgeStyle;rounded=0;orthogonalLoop=1;jettySize=auto;html=1;entryX=0;entryY=0.5;entryDx=0;entryDy=0;" edge="1" parent="1" source="h2ZsCBytCFm6cg6prh6w-52" target="h2ZsCBytCFm6cg6prh6w-51">
          <mxGeometry relative="1" as="geometry" />
        </mxCell>
        <mxCell id="h2ZsCBytCFm6cg6prh6w-52" value="" style="ellipse;whiteSpace=wrap;html=1;aspect=fixed;fillColor=none;" vertex="1" parent="1">
          <mxGeometry x="540" y="335" width="10" height="10" as="geometry" />
        </mxCell>
        <mxCell id="h2ZsCBytCFm6cg6prh6w-54" value="\(+\)" style="text;html=1;align=center;verticalAlign=middle;whiteSpace=wrap;rounded=0;" vertex="1" parent="1">
          <mxGeometry x="520" y="315" width="30" height="20" as="geometry" />
        </mxCell>
        <mxCell id="h2ZsCBytCFm6cg6prh6w-55" value="\(-\)" style="text;html=1;align=center;verticalAlign=middle;whiteSpace=wrap;rounded=0;" vertex="1" parent="1">
          <mxGeometry x="525" y="350" width="20" height="20" as="geometry" />
        </mxCell>
        <mxCell id="h2ZsCBytCFm6cg6prh6w-56" value="\(\tau\)" style="text;html=1;align=center;verticalAlign=middle;whiteSpace=wrap;rounded=0;" vertex="1" parent="1">
          <mxGeometry x="490" y="320" width="30" height="20" as="geometry" />
        </mxCell>
        <mxCell id="h2ZsCBytCFm6cg6prh6w-60" style="edgeStyle=orthogonalEdgeStyle;rounded=0;orthogonalLoop=1;jettySize=auto;html=1;" edge="1" parent="1" source="h2ZsCBytCFm6cg6prh6w-58">
          <mxGeometry relative="1" as="geometry">
            <mxPoint x="790" y="340" as="targetPoint" />
          </mxGeometry>
        </mxCell>
        <mxCell id="h2ZsCBytCFm6cg6prh6w-58" value="\(\dfrac{1}{s}\)" style="rounded=0;whiteSpace=wrap;html=1;fillColor=none;fontFamily=Times New Roman;fontSize=13;" vertex="1" parent="1">
          <mxGeometry x="660" y="320" width="40" height="40" as="geometry" />
        </mxCell>
        <mxCell id="h2ZsCBytCFm6cg6prh6w-62" value="\(z(0)\)" style="text;html=1;align=center;verticalAlign=middle;whiteSpace=wrap;rounded=0;fontSize=8;" vertex="1" parent="1">
          <mxGeometry x="236.5" y="365" width="19" height="10" as="geometry" />
        </mxCell>
        <mxCell id="h2ZsCBytCFm6cg6prh6w-65" style="edgeStyle=orthogonalEdgeStyle;rounded=0;orthogonalLoop=1;jettySize=auto;html=1;entryX=0.5;entryY=1;entryDx=0;entryDy=0;" edge="1" parent="1" source="h2ZsCBytCFm6cg6prh6w-63" target="h2ZsCBytCFm6cg6prh6w-52">
          <mxGeometry relative="1" as="geometry" />
        </mxCell>
        <mxCell id="h2ZsCBytCFm6cg6prh6w-63" value="\(b\)" style="rounded=0;whiteSpace=wrap;html=1;fillColor=none;fontFamily=Times New Roman;fontSize=13;" vertex="1" parent="1">
          <mxGeometry x="620" y="370" width="40" height="40" as="geometry" />
        </mxCell>
        <mxCell id="h2ZsCBytCFm6cg6prh6w-64" value="" style="endArrow=classic;html=1;rounded=0;entryX=1;entryY=0.5;entryDx=0;entryDy=0;" edge="1" parent="1" target="h2ZsCBytCFm6cg6prh6w-63">
          <mxGeometry width="50" height="50" relative="1" as="geometry">
            <mxPoint x="720" y="340" as="sourcePoint" />
            <mxPoint x="770" y="290" as="targetPoint" />
            <Array as="points">
              <mxPoint x="720" y="390" />
              <mxPoint x="690" y="390" />
            </Array>
          </mxGeometry>
        </mxCell>
        <mxCell id="h2ZsCBytCFm6cg6prh6w-66" value="\(\omega(0)\)" style="text;html=1;align=center;verticalAlign=middle;whiteSpace=wrap;rounded=0;fontSize=8;" vertex="1" parent="1">
          <mxGeometry x="670.5" y="305" width="19" height="10" as="geometry" />
        </mxCell>
        <mxCell id="h2ZsCBytCFm6cg6prh6w-67" value="\(\omega\)" style="text;html=1;align=center;verticalAlign=middle;whiteSpace=wrap;rounded=0;" vertex="1" parent="1">
          <mxGeometry x="770" y="325" width="30" height="10" as="geometry" />
        </mxCell>
        <mxCell id="h2ZsCBytCFm6cg6prh6w-68" value="" style="rounded=1;whiteSpace=wrap;html=1;fillColor=none;dashed=1;strokeColor=#1AB02E;fontColor=#1AB02E;" vertex="1" parent="1">
          <mxGeometry x="560" y="300" width="180" height="120" as="geometry" />
        </mxCell>
        <mxCell id="h2ZsCBytCFm6cg6prh6w-69" value="\(P(s)\)" style="text;html=1;align=center;verticalAlign=middle;whiteSpace=wrap;rounded=0;fontColor=#1AB02E;" vertex="1" parent="1">
          <mxGeometry x="629.5" y="270" width="60" height="30" as="geometry" />
        </mxCell>
        <mxCell id="h2ZsCBytCFm6cg6prh6w-70" value="" style="endArrow=classic;html=1;rounded=0;entryX=0.5;entryY=1;entryDx=0;entryDy=0;" edge="1" parent="1" target="h2ZsCBytCFm6cg6prh6w-24">
          <mxGeometry width="50" height="50" relative="1" as="geometry">
            <mxPoint x="760" y="340" as="sourcePoint" />
            <mxPoint x="160" y="380" as="targetPoint" />
            <Array as="points">
              <mxPoint x="760" y="440" />
              <mxPoint x="165" y="440" />
            </Array>
          </mxGeometry>
        </mxCell>
      </root>
    </mxGraphModel>
  </diagram>
</mxfile>
